<?xml version="1.0" encoding="UTF-8" standalone="no"?>
<svg
   xmlns:dc="http://purl.org/dc/elements/1.1/"
   xmlns:cc="http://creativecommons.org/ns#"
   xmlns:rdf="http://www.w3.org/1999/02/22-rdf-syntax-ns#"
   xmlns:svg="http://www.w3.org/2000/svg"
   xmlns="http://www.w3.org/2000/svg"
   xmlns:sodipodi="http://sodipodi.sourceforge.net/DTD/sodipodi-0.dtd"
   xmlns:inkscape="http://www.inkscape.org/namespaces/inkscape"
   width="700pt"
   height="700pt"
   version="1.1"
   viewBox="0 0 700 700"
   id="svg177"
   sodipodi:docname="Blog2.svg"
   inkscape:version="0.92.4 (5da689c313, 2019-01-14)">
  <metadata
     id="metadata181">
    <rdf:RDF>
      <cc:Work
         rdf:about="">
        <dc:format>image/svg+xml</dc:format>
        <dc:type
           rdf:resource="http://purl.org/dc/dcmitype/StillImage" />
      </cc:Work>
    </rdf:RDF>
  </metadata>
  <sodipodi:namedview
     pagecolor="#ffffff"
     bordercolor="#666666"
     borderopacity="1"
     objecttolerance="10"
     gridtolerance="10"
     guidetolerance="10"
     inkscape:pageopacity="0"
     inkscape:pageshadow="2"
     inkscape:window-width="3840"
     inkscape:window-height="2050"
     id="namedview179"
     showgrid="false"
     inkscape:zoom="1.430376"
     inkscape:cx="-12.813073"
     inkscape:cy="473.59196"
     inkscape:window-x="-12"
     inkscape:window-y="-12"
     inkscape:window-maximized="1"
     inkscape:current-layer="g175" />
  <defs
     id="defs65">
    <symbol
       id="u"
       overflow="visible">
      <path
         d="m3.6562-0.21875c-0.1875 0.09375-0.38672 0.16797-0.59375 0.21875-0.19922 0.050781-0.40625 0.078125-0.625 0.078125-0.66797 0-1.1992-0.17969-1.5938-0.54688-0.38672-0.375-0.57812-0.87891-0.57812-1.5156 0-0.64453 0.19141-1.1484 0.57812-1.5156 0.39453-0.375 0.92578-0.5625 1.5938-0.5625 0.21875 0 0.42578 0.027344 0.625 0.078125 0.20703 0.054687 0.40625 0.125 0.59375 0.21875v0.82812c-0.1875-0.125-0.375-0.21875-0.5625-0.28125-0.17969-0.0625-0.37109-0.09375-0.57812-0.09375-0.36719 0-0.65625 0.12109-0.875 0.35938-0.21094 0.23047-0.3125 0.55469-0.3125 0.96875 0 0.40625 0.10156 0.73047 0.3125 0.96875 0.21875 0.23047 0.50781 0.34375 0.875 0.34375 0.20703 0 0.39844-0.023437 0.57812-0.078125 0.1875-0.0625 0.375-0.16016 0.5625-0.29688z"
         id="path2" />
    </symbol>
    <symbol
       id="c"
       overflow="visible">
      <path
         d="m2.6875-2.1719c-0.085938-0.039063-0.16797-0.070313-0.25-0.09375-0.085938-0.019531-0.16797-0.03125-0.25-0.03125-0.25 0-0.44531 0.085937-0.57812 0.25-0.125 0.15625-0.1875 0.38281-0.1875 0.67188v1.375h-0.96875v-2.9844h0.96875v0.48438c0.11328-0.19531 0.25-0.33594 0.40625-0.42188 0.16406-0.09375 0.35938-0.14062 0.57812-0.14062h0.10938c0.039063 0 0.09375 0.007812 0.15625 0.015625z"
         id="path5" />
    </symbol>
    <symbol
       id="a"
       overflow="visible">
      <path
         d="m3.4375-1.5v0.26562h-2.2344c0.03125 0.23047 0.11328 0.40234 0.25 0.51562 0.13281 0.10547 0.32812 0.15625 0.57812 0.15625 0.20703 0 0.41406-0.023438 0.625-0.078125 0.20703-0.0625 0.42188-0.15625 0.64062-0.28125v0.73438c-0.21875 0.09375-0.44531 0.16406-0.67188 0.20312-0.23047 0.039062-0.45312 0.0625-0.67188 0.0625-0.54297 0-0.96484-0.13281-1.2656-0.40625-0.30469-0.28125-0.45312-0.67188-0.45312-1.1719 0-0.47656 0.14453-0.85938 0.4375-1.1406 0.30078-0.28125 0.70703-0.42188 1.2188-0.42188 0.46875 0 0.84375 0.14062 1.125 0.42188s0.42188 0.66406 0.42188 1.1406zm-0.96875-0.32812c0-0.17578-0.058594-0.31641-0.17188-0.42188-0.10547-0.11328-0.24219-0.17188-0.40625-0.17188-0.1875 0-0.33984 0.054687-0.45312 0.15625-0.11719 0.10547-0.1875 0.25-0.21875 0.4375z"
         id="path8" />
    </symbol>
    <symbol
       id="b"
       overflow="visible">
      <path
         d="m1.7969-1.3438c-0.19922 0-0.35156 0.039062-0.45312 0.10938-0.09375 0.0625-0.14062 0.16406-0.14062 0.29688 0 0.11719 0.035156 0.21094 0.10938 0.28125 0.082031 0.0625 0.19531 0.09375 0.34375 0.09375 0.17578 0 0.32812-0.0625 0.45312-0.1875s0.1875-0.28516 0.1875-0.48438v-0.10938zm1.4688-0.35938v1.7031h-0.96875v-0.4375c-0.125 0.17969-0.27344 0.30859-0.4375 0.39062-0.15625 0.082031-0.35156 0.125-0.57812 0.125-0.3125 0-0.57031-0.085938-0.76562-0.26562-0.1875-0.1875-0.28125-0.42188-0.28125-0.70312 0-0.35156 0.11719-0.61328 0.35938-0.78125 0.23828-0.16406 0.61719-0.25 1.1406-0.25h0.5625v-0.0625c0-0.15625-0.0625-0.26562-0.1875-0.32812-0.11719-0.070312-0.29688-0.10938-0.54688-0.10938-0.21094 0-0.40234 0.023437-0.57812 0.0625-0.17969 0.042969-0.33984 0.10156-0.48438 0.17188v-0.71875c0.19531-0.050781 0.39844-0.085938 0.60938-0.10938 0.20703-0.03125 0.41406-0.046875 0.625-0.046875 0.53906 0 0.92969 0.10938 1.1719 0.32812 0.23828 0.21094 0.35938 0.55469 0.35938 1.0312z"
         id="path11" />
    </symbol>
    <symbol
       id="d"
       overflow="visible">
      <path
         d="m1.5-3.8438v0.85938h0.98438v0.67188h-0.98438v1.2812c0 0.13672 0.023438 0.23047 0.078125 0.28125 0.0625 0.042969 0.17578 0.0625 0.34375 0.0625h0.48438v0.6875h-0.8125c-0.38672 0-0.65625-0.078125-0.8125-0.23438s-0.23438-0.42188-0.23438-0.79688v-1.2812h-0.46875v-0.67188h0.46875v-0.85938z"
         id="path14" />
    </symbol>
    <symbol
       id="f"
       overflow="visible">
      <path
         d="m2.5-2.5469v-1.6094h0.95312v4.1562h-0.95312v-0.4375c-0.13672 0.17969-0.28125 0.30859-0.4375 0.39062-0.15625 0.082031-0.33984 0.125-0.54688 0.125-0.375 0-0.68359-0.14453-0.92188-0.4375-0.23047-0.28906-0.34375-0.67188-0.34375-1.1406 0-0.45703 0.11328-0.83203 0.34375-1.125 0.23828-0.28906 0.54688-0.4375 0.92188-0.4375 0.19531 0 0.375 0.042969 0.53125 0.125 0.16406 0.085938 0.31641 0.21484 0.45312 0.39062zm-0.64062 1.9375c0.20703 0 0.36328-0.070313 0.46875-0.21875 0.11328-0.15625 0.17188-0.37891 0.17188-0.67188 0-0.28125-0.058594-0.49219-0.17188-0.64062-0.10547-0.15625-0.26172-0.23438-0.46875-0.23438-0.19922 0-0.35547 0.078125-0.46875 0.23438-0.10547 0.14844-0.15625 0.35938-0.15625 0.64062 0 0.29297 0.050781 0.51562 0.15625 0.67188 0.11328 0.14844 0.26953 0.21875 0.46875 0.21875z"
         id="path17" />
    </symbol>
    <symbol
       id="m"
       overflow="visible">
      <path
         d="m2.0469-0.60938c0.20703 0 0.36328-0.070313 0.46875-0.21875 0.11328-0.15625 0.17188-0.37891 0.17188-0.67188 0-0.28125-0.058594-0.49219-0.17188-0.64062-0.10547-0.15625-0.26172-0.23438-0.46875-0.23438-0.19922 0-0.35547 0.078125-0.46875 0.23438-0.10547 0.14844-0.15625 0.35938-0.15625 0.64062 0 0.29297 0.050781 0.51562 0.15625 0.67188 0.11328 0.14844 0.26953 0.21875 0.46875 0.21875zm-0.625-1.9375c0.125-0.17578 0.26562-0.30469 0.42188-0.39062 0.16406-0.082031 0.35156-0.125 0.5625-0.125 0.36328 0 0.66406 0.14844 0.90625 0.4375 0.23828 0.29297 0.35938 0.66797 0.35938 1.125 0 0.46875-0.12109 0.85156-0.35938 1.1406-0.24219 0.29297-0.54297 0.4375-0.90625 0.4375-0.21094 0-0.39844-0.042969-0.5625-0.125-0.15625-0.082031-0.29688-0.21094-0.42188-0.39062v0.4375h-0.96875v-4.1562h0.96875z"
         id="path20" />
    </symbol>
    <symbol
       id="l"
       overflow="visible">
      <path
         d="m0.0625-2.9844h0.95312l0.8125 2.0156 0.6875-2.0156h0.95312l-1.2656 3.2656c-0.125 0.33203-0.27344 0.56641-0.4375 0.70312-0.16797 0.13281-0.39062 0.20312-0.67188 0.20312h-0.54688v-0.64062h0.29688c0.16406 0 0.28516-0.027344 0.35938-0.078125 0.070313-0.054688 0.12891-0.14062 0.17188-0.26562l0.03125-0.09375z"
         id="path23" />
    </symbol>
    <symbol
       id="k"
       overflow="visible">
      <path
         d="m0.3125-3.9844h3.3438v0.625l-2.1406 2.5781h2.2031v0.78125h-3.4688v-0.625l2.1406-2.5781h-2.0781z"
         id="path26" />
    </symbol>
    <symbol
       id="j"
       overflow="visible">
      <path
         d="m0.42188-1.1719v-1.8125h0.96875v0.29688 0.60938 0.48438c0 0.24219 0.003906 0.41797 0.015625 0.53125 0.007812 0.10547 0.03125 0.17969 0.0625 0.21875 0.039062 0.0625 0.09375 0.11719 0.15625 0.15625 0.0625 0.03125 0.13281 0.046875 0.21875 0.046875 0.19531 0 0.35156-0.078125 0.46875-0.23438 0.11328-0.15625 0.17188-0.36719 0.17188-0.64062v-1.4688h0.95312v2.9844h-0.95312v-0.4375c-0.14844 0.17969-0.30469 0.30859-0.46875 0.39062-0.15625 0.082031-0.33594 0.125-0.53125 0.125-0.34375 0-0.60938-0.10156-0.79688-0.3125-0.17969-0.21875-0.26562-0.53125-0.26562-0.9375z"
         id="path29" />
    </symbol>
    <symbol
       id="t"
       overflow="visible">
      <path
         d="m0.45312-4.1562h0.96875v4.1562h-0.96875z"
         id="path32" />
    </symbol>
    <symbol
       id="i"
       overflow="visible">
      <path
         d="m2.4219-4.1562v0.625h-0.51562c-0.13672 0-0.23438 0.027344-0.29688 0.078125-0.054687 0.054687-0.078125 0.13672-0.078125 0.25v0.21875h0.82812v0.67188h-0.82812v2.3125h-0.95312v-2.3125h-0.46875v-0.67188h0.46875v-0.21875c0-0.32031 0.085937-0.5625 0.26562-0.71875 0.1875-0.15625 0.47266-0.23438 0.85938-0.23438z"
         id="path35" />
    </symbol>
    <symbol
       id="s"
       overflow="visible">
      <path
         d="m0.5-3.9844h1.3125l0.90625 2.125 0.90625-2.125h1.3125v3.9844h-0.96875v-2.9219l-0.92188 2.1562h-0.65625l-0.90625-2.1562v2.9219h-0.98438z"
         id="path38" />
    </symbol>
    <symbol
       id="h"
       overflow="visible">
      <path
         d="m3.4688-1.8281v1.8281h-0.96875v-1.3906c0-0.25781-0.007812-0.4375-0.015625-0.53125-0.011719-0.10156-0.03125-0.17578-0.0625-0.21875-0.03125-0.0625-0.085937-0.10938-0.15625-0.14062-0.0625-0.039062-0.13281-0.0625-0.20312-0.0625-0.21094 0-0.37109 0.078125-0.48438 0.23438-0.10547 0.15625-0.15625 0.37109-0.15625 0.64062v1.4688h-0.96875v-4.1562h0.96875v1.6094c0.13281-0.17578 0.28516-0.30469 0.45312-0.39062 0.16406-0.082031 0.34375-0.125 0.53125-0.125 0.34375 0 0.60156 0.10938 0.78125 0.32812 0.1875 0.21094 0.28125 0.51172 0.28125 0.90625z"
         id="path41" />
    </symbol>
    <symbol
       id="g"
       overflow="visible">
      <path
         d="m3.4688-1.8281v1.8281h-0.96875v-1.3906c0-0.25781-0.007812-0.4375-0.015625-0.53125-0.011719-0.10156-0.03125-0.17578-0.0625-0.21875-0.03125-0.0625-0.085937-0.10938-0.15625-0.14062-0.0625-0.039062-0.13281-0.0625-0.20312-0.0625-0.21094 0-0.37109 0.078125-0.48438 0.23438-0.10547 0.15625-0.15625 0.37109-0.15625 0.64062v1.4688h-0.96875v-2.9844h0.96875v0.4375c0.13281-0.17578 0.28516-0.30469 0.45312-0.39062 0.16406-0.082031 0.34375-0.125 0.53125-0.125 0.34375 0 0.60156 0.10938 0.78125 0.32812 0.1875 0.21094 0.28125 0.51172 0.28125 0.90625z"
         id="path44" />
    </symbol>
    <symbol
       id="e"
       overflow="visible">
      <path
         d="m1.875-2.375c-0.21094 0-0.37109 0.078125-0.48438 0.23438-0.10547 0.14844-0.15625 0.35938-0.15625 0.64062 0 0.29297 0.050781 0.51562 0.15625 0.67188 0.11328 0.14844 0.27344 0.21875 0.48438 0.21875 0.20703 0 0.36719-0.070313 0.48438-0.21875 0.11328-0.15625 0.17188-0.37891 0.17188-0.67188 0-0.28125-0.058594-0.49219-0.17188-0.64062-0.11719-0.15625-0.27734-0.23438-0.48438-0.23438zm0-0.6875c0.51953 0 0.92188 0.14062 1.2031 0.42188 0.28906 0.27344 0.4375 0.65234 0.4375 1.1406 0 0.5-0.14844 0.89062-0.4375 1.1719-0.28125 0.27344-0.68359 0.40625-1.2031 0.40625-0.51172 0-0.91406-0.13281-1.2031-0.40625-0.29297-0.28125-0.4375-0.67188-0.4375-1.1719 0-0.48828 0.14453-0.86719 0.4375-1.1406 0.28906-0.28125 0.69141-0.42188 1.2031-0.42188z"
         id="path47" />
    </symbol>
    <symbol
       id="r"
       overflow="visible">
      <path
         d="m3.2344-2.5c0.11328-0.17578 0.25391-0.3125 0.42188-0.40625 0.16406-0.10156 0.35156-0.15625 0.5625-0.15625 0.33203 0 0.58594 0.10938 0.76562 0.32812 0.1875 0.21094 0.28125 0.51172 0.28125 0.90625v1.8281h-0.96875v-1.5625c0.007813-0.019531 0.015625-0.039062 0.015625-0.0625v-0.10938c0-0.21875-0.03125-0.375-0.09375-0.46875s-0.16406-0.14062-0.29688-0.14062c-0.1875 0-0.33594 0.078125-0.4375 0.23438-0.09375 0.14844-0.14062 0.35938-0.14062 0.64062v1.4688h-0.96875v-1.5625c0-0.33203-0.03125-0.54688-0.09375-0.64062-0.054688-0.09375-0.15234-0.14062-0.29688-0.14062-0.17969 0-0.32031 0.078125-0.42188 0.23438-0.09375 0.14844-0.14062 0.35938-0.14062 0.64062v1.4688h-0.96875v-2.9844h0.96875v0.4375c0.11328-0.17578 0.24219-0.30469 0.39062-0.39062 0.15625-0.082031 0.32812-0.125 0.51562-0.125 0.20703 0 0.39062 0.054688 0.54688 0.15625 0.15625 0.09375 0.27344 0.23047 0.35938 0.40625z"
         id="path50" />
    </symbol>
    <symbol
       id="q"
       overflow="visible">
      <path
         d="m0.5-3.9844h1.1562l1.4375 2.7344v-2.7344h0.98438v3.9844h-1.1562l-1.4375-2.7344v2.7344h-0.98438z"
         id="path53" />
    </symbol>
    <symbol
       id="p"
       overflow="visible">
      <path
         d="m0.5-3.9844h1.7031c0.50781 0 0.89844 0.11719 1.1719 0.34375 0.26953 0.21875 0.40625 0.53906 0.40625 0.95312 0 0.41797-0.13672 0.74219-0.40625 0.96875-0.27344 0.21875-0.66406 0.32812-1.1719 0.32812h-0.67188v1.3906h-1.0312zm1.0312 0.75v1.1094h0.5625c0.19531 0 0.34766-0.046875 0.45312-0.14062 0.11328-0.10156 0.17188-0.24219 0.17188-0.42188 0-0.17578-0.058594-0.3125-0.17188-0.40625-0.10547-0.09375-0.25781-0.14062-0.45312-0.14062z"
         id="path56" />
    </symbol>
    <symbol
       id="o"
       overflow="visible">
      <path
         d="m0.45312-2.9844h0.96875v2.9375c0 0.39453-0.10156 0.69531-0.29688 0.90625-0.1875 0.21875-0.46484 0.32812-0.82812 0.32812h-0.48438v-0.64062h0.17188c0.17578 0 0.29688-0.042969 0.35938-0.125 0.070312-0.074219 0.10938-0.23047 0.10938-0.46875zm0-1.1719h0.96875v0.78125h-0.96875z"
         id="path59" />
    </symbol>
    <symbol
       id="n"
       overflow="visible">
      <path
         d="m2.875-2.8906v0.76562c-0.125-0.082031-0.25781-0.14453-0.39062-0.1875-0.13672-0.039062-0.27344-0.0625-0.40625-0.0625-0.27344 0-0.48047 0.078125-0.625 0.23438-0.14844 0.15625-0.21875 0.37109-0.21875 0.64062 0 0.28125 0.070313 0.5 0.21875 0.65625 0.14453 0.15625 0.35156 0.23438 0.625 0.23438 0.14453 0 0.28516-0.019531 0.42188-0.0625 0.13281-0.039063 0.25781-0.10938 0.375-0.20312v0.78125c-0.14844 0.0625-0.29688 0.10156-0.45312 0.125-0.15625 0.03125-0.3125 0.046875-0.46875 0.046875-0.54297 0-0.96484-0.13281-1.2656-0.40625-0.30469-0.28125-0.45312-0.67188-0.45312-1.1719 0-0.48828 0.14844-0.86719 0.45312-1.1406 0.30078-0.28125 0.72266-0.42188 1.2656-0.42188 0.15625 0 0.3125 0.015625 0.46875 0.046875 0.15625 0.023437 0.30469 0.0625 0.45312 0.125z"
         id="path62" />
    </symbol>
  </defs>
  <g
     id="g175">
    <path
       d="m192.41 131.11c-0.027344 0-0.054687-0.003907-0.082031-0.003907h-0.003906c-5.5312 0-10.012 4.4844-10.012 10.016s4.4805 10.016 10.012 10.016c0.027343 0 0.054687-0.003906 0.082031-0.003906s0.054688 0.003906 0.082031 0.003906h0.003907c5.5312 0 10.016-4.4844 10.016-10.016s-4.4844-10.016-10.016-10.016c-0.027344 0-0.054688 0.003907-0.082032 0.003907z"
       id="path67"
       style="fill:#4083BF;fill-opacity:1" />
    <path
       d="m149.55 141.12c0.003907 4.0469 2.4414 7.6953 6.1836 9.2422 3.7383 1.5469 8.043 0.6875 10.902-2.1758 2.8633-2.8594 3.7188-7.1641 2.168-10.906-1.5508-3.7383-5.1992-6.1758-9.2461-6.1758-5.5273 0.007813-10.004 4.4883-10.008 10.016z"
       id="path69"
       style="fill:#4083BF;fill-opacity:1" />
    <path
       d="m215.25 141.12c0 4.0469 2.4414 7.6953 6.1797 9.2422 3.7422 1.5469 8.0469 0.6875 10.906-2.1758 2.8633-2.8594 3.7148-7.1641 2.168-10.906-1.5508-3.7383-5.1992-6.1758-9.2461-6.1758-5.5273 0.007813-10.004 4.4883-10.008 10.016z"
       id="path71"
       style="fill:#4083BF;fill-opacity:1" />
    <path
       d="m516.37 316.43-278.29-0.03125c-2.0312 0-3.9805 0.80859-5.4141 2.2422-1.4375 1.4375-2.2422 3.3828-2.2461 5.4141 0 4.2305 3.4297 7.6562 7.6562 7.6562l278.29 0.03125c4.2305 0 7.6562-3.4258 7.6562-7.6562 0-4.2266-3.4258-7.6562-7.6523-7.6562z"
       id="path73"
       style="fill:#4083BF;fill-opacity:1" />
    <path
       d="m165.38 367.05h350.98c4.2305 0 7.6562-3.4297 7.6562-7.6562 0-4.2305-3.4258-7.6562-7.6562-7.6562h-350.98c-4.2305 0-7.6562 3.4258-7.6562 7.6562 0 4.2266 3.4258 7.6562 7.6562 7.6562z"
       id="path75"
       style="fill:#4083BF;fill-opacity:1" />
    <path
       d="m191.57 323.95c0 4.0508 2.4414 7.6953 6.1836 9.2422 3.7383 1.5469 8.043 0.69141 10.902-2.1719 2.8633-2.8633 3.7188-7.168 2.168-10.906-1.5508-3.7383-5.1992-6.1797-9.2461-6.1797-5.5273 0.007812-10.004 4.4922-10.008 10.016z"
       id="path77"
       style="fill:#4083BF;fill-opacity:1" />
    <path
       d="m158.63 323.95c0.003906 4.0508 2.4453 7.6953 6.1836 9.2422 3.7422 1.5469 8.0469 0.69141 10.906-2.1719s3.7148-7.168 2.168-10.906c-1.5508-3.7383-5.1992-6.1797-9.2461-6.1797-5.5273 0.007812-10.008 4.4922-10.012 10.016z"
       id="path79"
       style="fill:#4083BF;fill-opacity:1" />
    <path
       d="m550.45 278.81c-4.832 0-8.75 3.918-8.75 8.75v101.41c-0.007813 4.2109-3.418 7.6211-7.6289 7.625h-395.43c-4.2109-0.003906-7.625-3.4141-7.6328-7.625v-206.45h213.47c4.832 0 8.75-3.9141 8.75-8.75 0-4.832-3.918-8.75-8.75-8.75h-213.47v-43.316c0.007813-4.207 3.4219-7.6211 7.6328-7.625h205.84c4.832 0 8.75-3.9141 8.75-8.75 0-4.832-3.918-8.75-8.75-8.75h-205.84c-6.6641 0.007813-13.051 2.6562-17.762 7.3672-4.7109 4.7109-7.3594 11.098-7.3711 17.758v267.27c0.011719 6.6641 2.6602 13.051 7.3711 17.762 4.7109 4.707 11.098 7.3594 17.762 7.3633h168.18v32.473h-56.711c-6.6719 0.007813-13.066 2.6602-17.781 7.375-4.7148 4.7188-7.3672 11.113-7.375 17.781v44.531c0 4.832 3.918 8.75 8.75 8.75h205.31c4.832 0 8.75-3.918 8.75-8.75v-44.531c-0.007813-6.668-2.6602-13.062-7.3789-17.781-4.7148-4.7148-11.109-7.3672-17.777-7.375h-56.715v-32.473h168.18c6.6602-0.003906 13.047-2.6562 17.758-7.3633 4.7109-4.7109 7.3633-11.098 7.3711-17.762v-101.41c0-4.832-3.918-8.75-8.75-8.75zm-226.13 135.29h24.078v32.473h-24.078zm98.289 49.973c4.2266 0.003907 7.6523 3.4297 7.6562 7.6562v35.781h-187.81v-35.781c0.003906-4.2266 3.4297-7.6523 7.6562-7.6562z"
       id="path81"
       style="fill:#4083BF;fill-opacity:1" />
    <path
       d="m193.25 211.51c-1.6406-1.1953-3.6914-1.6914-5.6953-1.375-2.0078 0.3125-3.8047 1.4141-5 3.0547l-23.359 32.059c-1.9648 2.6914-1.9609 6.3477 0.011719 9.0352l23.504 32.055c1.1992 1.6445 3.0039 2.7422 5.0117 3.0508 2.0117 0.3125 4.0625-0.1875 5.6992-1.3906 1.6406-1.2031 2.7344-3.0078 3.043-5.0195 0.30469-2.0078-0.19922-4.0586-1.4062-5.6953l-20.195-27.543 20.062-27.535h0.003907c1.1953-1.6406 1.6914-3.6875 1.375-5.6953-0.31641-2.0039-1.4141-3.8047-3.0547-5z"
       id="path83"
       style="fill:#4083BF;fill-opacity:1" />
    <path
       d="m261.33 287.99c3.4102 2.5 8.1992 1.7617 10.703-1.6484l23.504-32.055c1.9727-2.6875 1.9766-6.3438 0.011719-9.0352l-23.359-32.059c-1.1953-1.6406-2.9922-2.7422-5-3.0586-2.0039-0.3125-4.0547 0.17969-5.6953 1.3789-1.6406 1.1953-2.7422 2.9922-3.0547 5-0.31641 2.0078 0.17969 4.0547 1.375 5.6953l20.062 27.535-20.195 27.543h0.003906c-2.5039 3.4102-1.7656 8.2031 1.6445 10.703z"
       id="path85"
       style="fill:#4083BF;fill-opacity:1" />
    <path
       d="m211.77 288.91c1.8828 0.75781 3.9883 0.73828 5.8594-0.054687 1.8672-0.79297 3.3438-2.2969 4.1016-4.1836l25.863-64.113h0.003906c1.5781-3.918-0.32031-8.375-4.2383-9.957s-8.3789 0.3125-9.9609 4.2305l-25.863 64.113h-0.003906c-0.75781 1.8828-0.73828 3.9883 0.054687 5.8594 0.79297 1.8672 2.3008 3.3438 4.1836 4.1055z"
       id="path87"
       style="fill:#4083BF;fill-opacity:1" />
    <path
       d="m444.76 121.88c-3.6133 0-6.8672 2.1758-8.2461 5.5117-1.3828 3.332-0.62109 7.1719 1.9336 9.7266 2.5508 2.5508 6.3906 3.3164 9.7266 1.9336 3.3359-1.3789 5.5078-4.6367 5.5117-8.2461-0.007812-4.9258-4-8.918-8.9258-8.9258z"
       id="path89"
       style="fill:#4083BF;fill-opacity:1" />
    <path
       d="m510.48 121.88c-3.6094 0-6.8633 2.1758-8.2461 5.5117-1.3828 3.332-0.61719 7.1719 1.9336 9.7266 2.5547 2.5508 6.3906 3.3164 9.7266 1.9336 3.3359-1.3789 5.5117-4.6367 5.5117-8.2461-0.003906-4.9258-4-8.918-8.9258-8.9258z"
       id="path91"
       style="fill:#4083BF;fill-opacity:1" />
    <path
       d="m479.39 35.012c-70.18-1.2656-122.28 58.125-105.34 125.66 5.6016 22.32 23.758 47.152 53.965 73.809v27.953c0 4.832 3.918 8.75 8.75 8.75h33.141v-28.68c0-4.832 3.918-8.75 8.75-8.75 4.832 0 8.75 3.918 8.75 8.75v28.68h32.23c6.4023 0 9.7344-4.1758 9.7344-8.75v-27.953c30.207-26.656 48.363-51.488 53.965-73.809 15.227-60.688-25.645-123.85-103.95-125.66zm-34.633 122.22c-7.0117 0-13.73-2.7852-18.688-7.7383-4.957-4.957-7.7383-11.68-7.7383-18.688 0-7.0078 2.7812-13.73 7.7383-18.688 4.957-4.9531 11.676-7.7383 18.688-7.7383 7.0078 0 13.73 2.7852 18.684 7.7422 4.957 4.9531 7.7422 11.676 7.7422 18.684-0.007812 7.0078-2.7969 13.723-7.75 18.68-4.9531 4.9531-11.672 7.7383-18.676 7.7461zm65.719 0h-0.003907c-7.0078 0-13.73-2.7852-18.688-7.7383-4.9531-4.957-7.7383-11.68-7.7383-18.688 0-7.0078 2.7852-13.73 7.7383-18.684 4.957-4.957 11.68-7.7422 18.688-7.7422 7.0078 0 13.73 2.7852 18.688 7.7422 4.9531 4.9531 7.7383 11.676 7.7383 18.684-0.007813 7.0078-2.793 13.723-7.75 18.676-4.9531 4.957-11.668 7.7422-18.676 7.75z"
       id="path93"
       style="fill:#4083BF;fill-opacity:1" />
    <g
       style="font-style:normal;font-weight:normal;font-size:40px;line-height:1.25;font-family:sans-serif;letter-spacing:0px;word-spacing:0px;fill:#000000;fill-opacity:1;stroke:none"
       id="flowRoot4699" />
  </g>
</svg>
